<?xml version="1.0" standalone="no"?>
<!DOCTYPE svg PUBLIC "-//W3C//DTD SVG 20010904//EN"
 "http://www.w3.org/TR/2001/REC-SVG-20010904/DTD/svg10.dtd">
<svg version="1.0" xmlns="http://www.w3.org/2000/svg"
 width="367.000000pt" height="320.000000pt" viewBox="0 0 367.000000 320.000000"
 preserveAspectRatio="xMidYMid meet">

<g transform="translate(0.000000,320.000000) scale(0.100000,-0.100000)"
fill="#2B7A0B" stroke="none">
<path d="M1558 3005 c-18 -10 -42 -47 -79 -125 l-53 -109 -56 -11 c-135 -26
-159 -32 -225 -53 -85 -27 -145 -78 -145 -124 0 -70 108 -147 265 -189 90 -23
102 -39 63 -81 -20 -21 -23 -35 -23 -103 0 -69 3 -81 24 -104 14 -14 32 -26
41 -26 19 0 40 -19 40 -37 0 -25 63 -149 106 -210 24 -34 44 -64 44 -66 0 -3
-17 -22 -38 -43 -21 -22 -43 -47 -49 -58 -8 -14 -14 -16 -29 -8 -13 6 -38 6
-78 -1 -47 -9 -62 -16 -74 -37 -9 -16 -48 -41 -106 -70 -209 -102 -326 -294
-350 -579 -26 -291 -26 -294 -58 -356 -28 -55 -30 -65 -25 -135 6 -91 38 -164
79 -182 15 -7 28 -16 28 -20 0 -5 19 -21 42 -38 l41 -30 173 0 c159 0 180 -2
249 -25 154 -52 258 -68 430 -69 173 0 295 20 433 70 60 22 83 24 225 24 169
0 190 5 236 54 14 14 33 26 43 26 48 0 79 41 104 135 22 81 18 122 -20 190
-30 55 -34 73 -40 166 -25 368 -75 520 -220 664 -52 51 -93 81 -152 109 -50
25 -86 49 -95 65 -19 33 -118 58 -151 38 -17 -10 -22 -9 -32 8 -6 11 -28 37
-49 58 l-38 37 45 61 c45 60 116 196 116 222 0 18 21 37 40 37 9 0 27 12 41
26 21 23 24 35 24 104 0 72 -2 81 -27 107 -16 16 -28 34 -28 41 0 6 12 14 28
18 151 34 244 77 298 136 100 111 -18 199 -338 249 -86 13 -74 1 -132 134 -35
81 -39 86 -69 108 -24 19 -31 19 -136 7 -88 -11 -127 -11 -188 -2 -98 15 -122
15 -155 -3z m237 -49 c33 0 95 4 138 9 90 9 98 4 117 -78 7 -26 16 -50 21 -53
5 -3 9 -13 9 -22 0 -16 -24 -17 -285 -17 -157 0 -285 1 -285 2 0 2 10 33 22
70 32 103 38 107 128 98 41 -5 102 -8 135 -9z m290 -241 c244 -23 323 -40 432
-92 85 -40 -7 -122 -193 -172 -60 -16 -64 -15 -64 24 0 19 4 35 9 35 5 0 11 9
14 19 6 24 -21 51 -51 51 -12 0 -30 4 -40 9 -25 13 -159 30 -297 36 -149 7
-469 -16 -490 -36 -5 -5 -21 -9 -35 -9 -14 0 -31 -5 -38 -12 -17 -17 -15 -55
3 -62 17 -6 20 -52 4 -61 -5 -4 -22 -3 -37 3 -15 5 -45 15 -67 21 -98 30 -175
82 -175 119 0 22 57 53 141 77 204 57 579 78 884 50z m-125 -155 c236 -21 227
-16 210 -143 -11 -77 -11 -113 -2 -173 11 -69 10 -83 -9 -147 -54 -181 -148
-312 -265 -366 -165 -78 -353 76 -445 363 -20 64 -21 74 -9 155 9 65 9 101 1
145 -6 33 -11 77 -11 97 0 37 0 38 53 48 131 27 316 35 477 21z m-575 -342
c-8 -70 -9 -73 -24 -63 -14 8 -14 80 -1 106 22 39 32 21 25 -43z m865 43 c15
-29 12 -97 -5 -111 -8 -7 -15 -11 -15 -9 -14 120 -6 167 20 120z m-573 -573
c31 -19 53 -23 123 -23 81 0 97 4 173 43 4 2 7 -30 7 -71 0 -86 -22 -130 -80
-160 -46 -24 -181 -20 -222 7 -41 27 -68 92 -68 164 0 71 7 75 67 40z m-107
-24 c0 -27 -31 -84 -46 -84 -19 0 -18 45 2 75 18 28 44 33 44 9z m506 -20 c15
-36 13 -64 -5 -64 -11 0 -41 62 -41 84 0 30 31 16 46 -20z m-646 -73 c0 -22
11 -106 25 -187 33 -194 33 -186 -12 -182 l-37 3 -28 165 c-15 91 -33 176 -39
190 -13 31 9 50 58 50 32 0 33 -1 33 -39z m829 25 c8 -10 9 -21 3 -33 -11 -23
-27 -100 -48 -245 l-18 -118 -38 0 c-47 0 -47 -3 -12 185 14 77 25 156 26 175
0 19 2 38 5 43 8 13 70 8 82 -7z m-964 -86 c11 -35 -3 -56 -48 -70 -71 -21
-155 -72 -200 -120 -41 -45 -55 -64 -86 -125 l-16 -30 -3 27 c-9 76 130 247
248 305 76 38 96 40 105 13z m1109 -12 c89 -47 178 -142 226 -243 54 -110 55
-170 2 -74 -11 20 -26 47 -34 60 -30 54 -129 137 -213 179 -74 38 -85 47 -85
70 0 51 19 52 104 8z m-315 -460 c-3 -21 12 -48 27 -48 7 0 20 10 28 22 l15
21 10 -24 c13 -30 61 -272 55 -278 -2 -2 -21 2 -43 9 -29 9 -55 10 -107 2 -38
-6 -109 -16 -159 -22 -49 -6 -119 -15 -155 -20 -110 -16 -143 -20 -205 -26
l-60 -5 -59 53 -58 53 16 85 c23 120 37 170 47 170 5 0 9 -6 9 -14 0 -8 7 -16
15 -20 25 -9 45 4 45 30 l0 24 290 0 c227 0 290 -3 289 -12z m-786 -294 c18
-9 52 -32 76 -52 53 -43 47 -47 -69 -57 l-85 -7 -43 40 c-48 44 -47 56 2 78
42 18 80 17 119 -2z m903 -76 c55 -20 48 -33 -26 -46 -59 -10 -81 -21 -167
-81 -103 -73 -119 -83 -248 -155 -79 -44 -148 -74 -235 -103 -49 -16 -488 -31
-554 -19 -47 9 -96 61 -96 101 1 60 114 173 158 157 8 -2 44 5 80 16 85 26
296 58 747 113 55 6 116 15 135 19 55 12 170 11 206 -2z m164 -103 c40 -8 103
-31 141 -50 57 -28 73 -33 88 -23 23 14 61 -12 90 -63 31 -54 26 -71 -30 -124
l-51 -48 -267 6 c-178 4 -285 11 -323 21 -92 23 -189 57 -186 66 2 4 68 52
148 105 186 125 243 141 390 110z"/>
<path d="M1565 2432 c-73 -6 -96 -13 -93 -28 2 -12 23 -15 108 -16 90 -1 105
2 108 16 2 9 0 16 -5 16 -4 1 -26 4 -48 8 -22 4 -53 6 -70 4z"/>
<path d="M1954 2430 c-52 -12 -64 -19 -59 -32 7 -17 217 -17 223 0 8 25 -103
47 -164 32z"/>
<path d="M1796 2358 c-19 -26 -23 -193 -6 -203 17 -10 70 5 70 20 0 8 -9 17
-20 20 -17 5 -20 15 -20 67 0 42 5 67 16 79 17 19 12 39 -11 39 -8 0 -21 -10
-29 -22z"/>
<path d="M1536 2334 c-33 -32 -12 -56 45 -52 38 3 44 6 47 27 2 13 -2 28 -10
32 -21 14 -65 10 -82 -7z"/>
<path d="M1961 2336 c-7 -8 -10 -24 -6 -36 5 -16 15 -20 51 -20 48 0 66 19 47
49 -14 22 -76 26 -92 7z"/>
<path d="M1626 2118 c-14 -13 -32 -42 -39 -65 l-14 -42 71 -37 c62 -31 81 -36
146 -38 67 -1 85 3 153 34 83 38 87 46 63 104 -25 60 -43 66 -208 66 -138 0
-148 -1 -172 -22z m318 -47 c16 -13 16 -16 1 -30 -23 -24 -267 -23 -290 0 -14
14 -14 18 -2 30 19 20 267 19 291 0z"/>
<path d="M1523 943 c-18 -7 -16 -40 3 -47 30 -11 53 -6 65 15 9 17 8 23 -2 30
-15 9 -46 10 -66 2z"/>
<path d="M1647 943 c-15 -14 -6 -41 16 -47 48 -13 96 -7 107 14 6 11 8 25 5
30 -7 11 -118 14 -128 3z"/>
<path d="M1827 943 c-15 -14 -6 -41 16 -47 29 -8 81 -8 101 0 9 3 16 14 16 24
0 10 -7 21 -16 24 -21 8 -109 8 -117 -1z"/>
<path d="M2013 944 c-21 -9 -15 -42 8 -49 36 -12 71 3 67 28 -2 17 -10 22 -33
24 -16 1 -36 0 -42 -3z"/>
</g>
</svg>
