<?xml version="1.0" standalone="no"?>
<!DOCTYPE svg PUBLIC "-//W3C//DTD SVG 20010904//EN"
 "http://www.w3.org/TR/2001/REC-SVG-20010904/DTD/svg10.dtd">
<svg version="1.0" xmlns="http://www.w3.org/2000/svg"
 width="512.000000pt" height="512.000000pt" viewBox="0 0 512.000000 512.000000"
 preserveAspectRatio="xMidYMid meet">

<g transform="translate(0.000000,512.000000) scale(0.100000,-0.100000)"
fill="#2B7A0B" stroke="none">
<path d="M2410 5105 c-164 -33 -326 -134 -419 -262 -39 -54 -48 -61 -86 -66
-115 -16 -239 -100 -298 -200 -53 -91 -57 -123 -57 -488 l0 -337 -35 -52 c-65
-96 -72 -203 -19 -300 56 -102 128 -142 269 -148 l100 -4 30 -66 c54 -120 162
-247 272 -319 l53 -36 0 -106 0 -106 -97 -23 c-203 -49 -359 -132 -501 -267
-134 -127 -262 -314 -262 -382 0 -58 58 -91 109 -63 10 5 40 48 66 95 26 47
52 85 56 85 13 0 67 -77 101 -144 35 -69 35 -65 -15 -291 -73 -324 -117 -738
-143 -1323 l-7 -152 -156 2 -156 3 -3 120 c-2 66 2 208 8 315 20 355 55 608
122 882 39 159 40 168 24 192 -21 33 -62 43 -95 25 -31 -17 -57 -88 -95 -259
-72 -322 -116 -752 -116 -1127 0 -172 6 -201 48 -247 55 -59 -8 -56 1219 -56
1069 0 1130 1 1168 19 51 23 101 79 114 128 7 24 8 96 4 194 l-6 156 24 6 c13
4 65 7 114 7 106 0 168 24 230 86 61 62 85 125 85 220 0 170 -67 570 -134 795
-95 324 -216 540 -398 715 -140 134 -303 221 -500 266 l-98 22 0 106 1 105 71
50 c109 77 216 208 267 328 l19 45 99 4 c139 6 212 46 267 148 52 96 46 204
-18 299 l-34 50 -5 288 c-4 323 -10 356 -87 520 -40 86 -62 106 -110 101 -25
-2 -37 7 -89 69 -56 67 -59 73 -54 112 5 37 3 44 -31 74 -89 82 -276 165 -433
192 -103 18 -294 18 -383 0z m380 -185 c95 -57 172 -121 232 -194 144 -175
204 -341 215 -596 6 -142 6 -145 -13 -129 -37 32 -82 48 -240 87 -243 60 -412
136 -548 248 -81 67 -115 84 -168 84 -69 -1 -124 -33 -219 -128 -70 -72 -95
-105 -133 -183 -26 -53 -56 -134 -69 -186 l-22 -93 -40 0 c-22 0 -50 -3 -62
-6 l-23 -6 0 284 c0 342 4 365 84 444 54 54 122 84 193 84 50 0 66 12 118 90
117 176 296 257 540 244 82 -5 96 -9 155 -44z m-410 -738 c146 -111 359 -202
603 -256 114 -26 147 -41 172 -79 38 -59 45 -355 10 -482 -32 -118 -83 -203
-175 -295 -135 -136 -283 -198 -446 -188 -144 9 -264 68 -384 188 -83 83 -133
168 -172 290 -20 65 -23 95 -23 230 1 86 7 182 14 215 43 206 121 345 245 436
33 25 42 27 56 17 9 -7 55 -41 100 -76z m-570 -616 c0 -57 3 -118 6 -135 l7
-31 -54 0 c-36 0 -65 7 -87 20 -125 76 -69 250 81 250 l47 0 0 -104z m1644 90
c143 -60 88 -256 -71 -256 l-55 0 7 31 c4 16 7 77 7 135 l0 104 39 0 c22 0 54
-6 73 -14z m-927 -931 c61 -6 121 0 221 21 l33 7 -3 -159 -3 -159 -38 -80
c-44 -91 -97 -165 -136 -188 -26 -15 -29 -15 -58 2 -39 25 -117 141 -148 225
-23 60 -25 81 -25 215 l0 149 44 -13 c25 -8 75 -17 113 -20z m-302 -302 c28
-149 176 -365 280 -409 82 -34 170 -1 258 96 60 67 135 207 158 295 6 28 13
51 14 52 1 2 42 -8 93 -22 152 -41 270 -103 384 -205 l48 -42 -47 -61 c-26
-33 -67 -99 -91 -146 -44 -85 -44 -87 -40 -168 l4 -82 -255 -3 c-294 -3 -307
-7 -348 -88 -22 -42 -23 -56 -23 -266 l0 -221 -77 -5 c-100 -6 -153 -32 -194
-95 l-29 -47 0 -181 0 -181 29 -47 c19 -28 46 -55 73 -69 43 -23 44 -23 514
-26 l472 -3 5 -32 c4 -18 7 -90 9 -160 3 -118 1 -130 -16 -143 -17 -12 -155
-14 -894 -14 l-874 0 6 128 c22 418 41 680 67 884 l11 87 37 -20 c32 -17 57
-19 279 -19 230 0 246 1 282 21 66 37 80 77 80 224 0 147 -14 187 -80 224 -35
20 -52 21 -275 21 l-237 0 7 23 c3 12 9 56 12 97 4 72 3 79 -35 155 -21 44
-62 110 -90 147 l-51 67 50 45 c106 95 227 159 377 201 48 13 90 24 93 24 4 1
10 -16 14 -36z m1430 -528 c115 -235 195 -534 240 -905 26 -216 17 -264 -57
-310 -31 -19 -51 -20 -430 -20 l-398 0 0 105 0 105 349 0 c337 0 349 1 375 21
18 14 26 30 26 53 0 54 -20 70 -92 76 l-63 5 -5 305 c-4 265 -7 308 -22 329
-23 32 -68 61 -95 61 -28 0 -42 26 -50 88 -6 54 9 92 80 196 l40 59 24 -29
c13 -16 48 -78 78 -139z m-1365 -440 l0 -95 -210 0 -210 0 0 95 0 95 210 0
210 0 0 -95z m570 -630 l0 -165 -163 0 c-113 0 -167 4 -175 12 -17 17 -17 289
0 306 8 8 62 12 175 12 l163 0 0 -165z"/>
<path d="M2255 3778 c-35 -19 -45 -40 -45 -99 0 -72 25 -109 74 -109 51 0 76
34 76 102 0 71 -6 85 -41 103 -33 18 -38 18 -64 3z"/>
<path d="M2835 3778 c-35 -19 -45 -40 -45 -99 0 -72 25 -109 74 -109 51 0 76
34 76 102 0 71 -6 85 -41 103 -33 18 -38 18 -64 3z"/>
<path d="M2362 3347 c-35 -37 -29 -80 16 -116 83 -69 204 -89 307 -50 114 42
158 115 102 167 -30 28 -60 28 -111 -2 -76 -44 -140 -42 -208 5 -36 26 -80 24
-106 -4z"/>
</g>
</svg>
